<?xml version="1.0" encoding="UTF-8" standalone="no"?>
<!-- Created with Inkscape (http://www.inkscape.org/) -->

<svg
   xmlns:dc="http://purl.org/dc/elements/1.1/"
   xmlns:cc="http://creativecommons.org/ns#"
   xmlns:rdf="http://www.w3.org/1999/02/22-rdf-syntax-ns#"
   xmlns:svg="http://www.w3.org/2000/svg"
   xmlns="http://www.w3.org/2000/svg"
   xmlns:sodipodi="http://sodipodi.sourceforge.net/DTD/sodipodi-0.dtd"
   xmlns:inkscape="http://www.inkscape.org/namespaces/inkscape"
   id="svg5675"
   sodipodi:docname="keyboard.svg"
   viewBox="0 0 891 309.85"
   sodipodi:version="0.32"
   version="1.0"
   inkscape:output_extension="org.inkscape.output.svg.inkscape"
   inkscape:version="0.91 r13725">
  <defs
     id="defs5677" />
  <sodipodi:namedview
     id="base"
     bordercolor="#666666"
     inkscape:pageshadow="2"
     guidetolerance="10"
     pagecolor="#ffffff"
     gridtolerance="10000"
     inkscape:window-height="1545"
     inkscape:zoom="1.4"
     objecttolerance="10"
     showgrid="false"
     borderopacity="1.0"
     inkscape:current-layer="g5356"
     inkscape:cx="587.19283"
     inkscape:cy="186.86741"
     inkscape:window-y="27"
     inkscape:window-x="0"
     inkscape:window-width="2728"
     inkscape:pageopacity="0.0"
     inkscape:document-units="px"
     inkscape:window-maximized="0" />
  <g
     id="layer1"
     inkscape:label="Layer 1"
     inkscape:groupmode="layer"
     transform="translate(70.5 -377.44)">
    <g
       id="g5356"
       transform="translate(-202.86 244.29)">
      <rect
         id="rect4791"
         style="fill:#d1d1d1;fill-opacity:1;stroke:none"
         ry="0"
         height="310"
         width="891"
         y="133"
         x="132.36"
         rx="0" />
      <g
         id="g4915"
         style="opacity:0.95999995;fill:#2c2c2c;stroke:#000000;fill-opacity:1;stroke-opacity:1"
         transform="translate(-0.85715,-1.4949)">
        <rect
           id="rect4917"
           style="opacity:1;fill:#2c2c2c;fill-opacity:1;stroke:#000000;stroke-opacity:1"
           ry="6.8571"
           height="42.856998"
           width="42.856998"
           y="153.64999"
           x="159.42999" />
        <rect
           id="rect4919"
           style="opacity:1;fill:#006cb4;stroke:#000000;fill-opacity:1;stroke-opacity:1"
           ry="6.8571"
           height="42.856998"
           width="42.856998"
           y="153.64999"
           x="214.14" />
        <rect
           id="rect4921"
           style="opacity:1;fill:#006cb4;stroke:#000000;fill-opacity:1;stroke-opacity:1"
           ry="6.8571"
           height="42.856998"
           width="42.856998"
           y="153.64999"
           x="270.14001" />
        <rect
           id="rect4923"
           style="opacity:1;fill:#006cb4;stroke:#000000;fill-opacity:1;stroke-opacity:1"
           ry="6.8571"
           height="42.856998"
           width="42.856998"
           y="153.64999"
           x="324.14001" />
        <rect
           id="rect4925"
           style="opacity:1;fill:#006cb4;stroke:#000000;fill-opacity:1;stroke-opacity:1"
           ry="6.8571"
           height="42.856998"
           width="42.856998"
           y="153.64999"
           x="382.14001" />
        <rect
           id="rect4927"
           style="opacity:1;fill:#006cb4;stroke:#000000;fill-opacity:1;stroke-opacity:1"
           ry="6.8571"
           height="42.856998"
           width="42.856998"
           y="153.64999"
           x="434.14001" />
        <rect
           id="rect4929"
           style="opacity:1;fill:#006cb4;stroke:#000000;fill-opacity:1;stroke-opacity:1"
           ry="6.8571"
           height="42.856998"
           width="42.856998"
           y="153.64999"
           x="494.14001" />
        <rect
           id="rect4931"
           style="opacity:1;fill:#006cb4;stroke:#000000;fill-opacity:1;stroke-opacity:1"
           ry="6.8571"
           height="42.856998"
           width="42.856998"
           y="153.64999"
           x="550.14001" />
        <rect
           id="rect4933"
           style="opacity:1;fill:#006cb4;stroke:#000000;fill-opacity:1;stroke-opacity:1"
           ry="6.8571"
           height="42.856998"
           width="42.856998"
           y="153.64999"
           x="610.14001" />
        <rect
           id="rect4935"
           style="opacity:1;fill:#006cb4;stroke:#000000;fill-opacity:1;stroke-opacity:1"
           ry="6.8571"
           height="42.856998"
           width="42.856998"
           y="153.64999"
           x="666.14001" />
        <rect
           id="rect4937"
           style="opacity:1;fill:#006cb4;stroke:#000000;fill-opacity:1;stroke-opacity:1"
           ry="6.8571"
           height="42.856998"
           width="42.856998"
           y="153.64999"
           x="726.14001" />
        <rect
           id="rect4939"
           style="opacity:1;fill:#2c2c2c;stroke:#000000;fill-opacity:1;stroke-opacity:1"
           ry="6.8571"
           height="42.856998"
           width="42.856998"
           y="153.64999"
           x="782.14001" />
        <rect
           id="rect4941"
           style="opacity:1;fill:#2c2c2c;stroke:#000000;fill-opacity:1;stroke-opacity:1"
           ry="6.8571"
           height="42.856998"
           width="42.856998"
           y="153.64999"
           x="842.14001" />
        <rect
           id="rect4943"
           style="opacity:1;fill:#2c2c2c;stroke:#000000;fill-opacity:1;stroke-opacity:1"
           ry="6.8571"
           height="42.856998"
           width="97.857002"
           y="153.64999"
           x="900.14001" />
        <rect
           id="rect4945"
           style="opacity:1;fill:#2c2c2c;stroke:#000000;fill-opacity:1;stroke-opacity:1"
           ry="6.8571"
           height="42.856998"
           width="72.857002"
           y="211.64999"
           x="159.42999" />
        <rect
           id="rect4947"
           style="opacity:1;fill:#2c2c2c;stroke:#000000;fill-opacity:1;stroke-opacity:1"
           ry="6.8571"
           height="42.856998"
           width="42.856998"
           y="211.64999"
           x="242.14" />
        <rect
           id="rect4949"
           style="opacity:1;fill:#b42500;stroke:#000000;fill-opacity:1;stroke-opacity:1"
           ry="6.8571"
           height="42.856998"
           width="42.856998"
           y="211.64999"
           x="298.14001" />
        <rect
           id="rect4951"
           style="opacity:1;fill:#2c2c2c;stroke:#000000;fill-opacity:1;stroke-opacity:1"
           ry="6.8571"
           height="42.856998"
           width="42.856998"
           y="211.64999"
           x="352.14001" />
        <rect
           id="rect4953"
           style="opacity:1;fill:#2c2c2c;stroke:#000000;fill-opacity:1;stroke-opacity:1"
           ry="6.8571"
           height="42.856998"
           width="42.856998"
           y="211.64999"
           x="410.14001" />
        <rect
           id="rect4955"
           style="opacity:1;fill:#00b46f;stroke:#000000;fill-opacity:1;stroke-opacity:1"
           ry="6.8571"
           height="42.856998"
           width="42.856998"
           y="211.64999"
           x="462.14001" />
        <rect
           id="rect4957"
           style="opacity:1;fill:#2c2c2c;stroke:#000000;fill-opacity:1;stroke-opacity:1"
           ry="6.8571"
           height="42.856998"
           width="42.856998"
           y="211.64999"
           x="522.14001" />
        <rect
           id="rect4959"
           style="opacity:1;fill:#2c2c2c;stroke:#000000;fill-opacity:1;stroke-opacity:1"
           ry="6.8571"
           height="42.856998"
           width="42.856998"
           y="211.64999"
           x="578.14001" />
        <rect
           id="rect4961"
           style="opacity:1;fill:#2c2c2c;stroke:#000000;fill-opacity:1;stroke-opacity:1"
           ry="6.8571"
           height="42.856998"
           width="42.856998"
           y="211.64999"
           x="638.14001" />
        <rect
           id="rect4963"
           style="opacity:1;fill:#2c2c2c;stroke:#000000;fill-opacity:1;stroke-opacity:1"
           ry="6.8571"
           height="42.856998"
           width="42.856998"
           y="211.64999"
           x="694.14001" />
        <rect
           id="rect4965"
           style="opacity:1;fill:#2c2c2c;stroke:#000000;fill-opacity:1;stroke-opacity:1"
           ry="6.8571"
           height="42.856998"
           width="42.856998"
           y="211.64999"
           x="754.14001" />
        <rect
           id="rect4967"
           style="opacity:1;fill:#2c2c2c;stroke:#000000;fill-opacity:1;stroke-opacity:1"
           ry="6.8571"
           height="42.856998"
           width="42.856998"
           y="211.64999"
           x="810.14001" />
        <rect
           id="rect4969"
           style="opacity:1;fill:#2c2c2c;stroke:#000000;fill-opacity:1;stroke-opacity:1"
           ry="6.8571"
           height="42.856998"
           width="42.856998"
           y="211.64999"
           x="870.14001" />
        <rect
           id="rect4971"
           style="opacity:1;fill:#2c2c2c;stroke:#000000;fill-opacity:1;stroke-opacity:1"
           ry="6.8571"
           height="42.856998"
           width="68.570999"
           y="211.64999"
           x="928.85999" />
        <rect
           id="rect4973"
           style="opacity:1;fill:#2c2c2c;fill-opacity:1;stroke:#000000;stroke-width:1.02941847;stroke-opacity:1"
           ry="6.8523932"
           height="42.827579"
           width="87.223579"
           y="266.65472"
           x="159.4447" />
        <rect
           id="rect4975"
           style="opacity:1;fill:#b42500;stroke:#000000;fill-opacity:1;stroke-opacity:1"
           ry="6.8571"
           height="42.856998"
           width="42.856998"
           y="266.64001"
           x="258.12" />
        <rect
           id="rect4977"
           style="opacity:1;fill:#b42500;stroke:#000000;fill-opacity:1;stroke-opacity:1"
           ry="6.8571"
           height="42.856998"
           width="42.856998"
           y="266.64001"
           x="314.14001" />
        <rect
           id="rect4979"
           style="opacity:1;fill:#b42500;stroke:#000000;fill-opacity:1;stroke-opacity:1"
           ry="6.8571"
           height="42.856998"
           width="42.856998"
           y="266.64001"
           x="369.10999" />
        <rect
           id="rect4981"
           style="opacity:1;fill:#2c2c2c;stroke:#000000;fill-opacity:1;stroke-opacity:1"
           ry="6.8571"
           height="42.856998"
           width="42.856998"
           y="266.64001"
           x="424.14001" />
        <rect
           id="rect4983"
           style="opacity:1;fill:#2c2c2c;stroke:#000000;fill-opacity:1;stroke-opacity:1"
           ry="6.8571"
           height="42.856998"
           width="42.856998"
           y="266.64001"
           x="480.14001" />
        <rect
           id="rect4985"
           style="opacity:1;fill:#2c2c2c;stroke:#000000;fill-opacity:1;stroke-opacity:1"
           ry="6.8571"
           height="42.856998"
           width="42.856998"
           y="266.64001"
           x="538.14001" />
        <rect
           id="rect4987"
           style="opacity:1;fill:#2c2c2c;stroke:#000000;fill-opacity:1;stroke-opacity:1"
           ry="6.8571"
           height="42.856998"
           width="42.856998"
           y="266.64001"
           x="596.14001" />
        <rect
           id="rect4989"
           style="opacity:1;fill:#2c2c2c;stroke:#000000;fill-opacity:1;stroke-opacity:1"
           ry="6.8571"
           height="42.856998"
           width="42.856998"
           y="266.64001"
           x="654.14001" />
        <rect
           id="rect4991"
           style="opacity:1;fill:#2c2c2c;stroke:#000000;fill-opacity:1;stroke-opacity:1"
           ry="6.8571"
           height="42.856998"
           width="42.856998"
           y="266.64001"
           x="710.14001" />
        <rect
           id="rect4993"
           style="opacity:1;fill:#2c2c2c;stroke:#000000;fill-opacity:1;stroke-opacity:1"
           ry="6.8571"
           height="42.856998"
           width="42.856998"
           y="266.64001"
           x="766.14001" />
        <rect
           id="rect4995"
           style="opacity:1;fill:#2c2c2c;stroke:#000000;fill-opacity:1;stroke-opacity:1"
           ry="6.8571"
           height="42.856998"
           width="42.856998"
           y="266.64001"
           x="826.14001" />
        <rect
           id="rect4997"
           style="opacity:1;fill:#2c2c2c;stroke:#000000;fill-opacity:1;stroke-opacity:1"
           ry="6.8571"
           height="42.856998"
           width="109.98"
           y="266.64001"
           x="886.14001" />
        <rect
           id="rect4999"
           style="opacity:1;fill:#2c2c2c;fill-opacity:1;stroke:#000000;stroke-width:1.01619637;stroke-opacity:1"
           ry="6.8545084"
           height="42.840801"
           width="110.01934"
           y="324.6481"
           x="159.4381" />
        <rect
           id="rect5001"
           style="opacity:1;fill:#2c2c2c;stroke:#000000;fill-opacity:1;stroke-opacity:1"
           ry="6.8571"
           height="42.856998"
           width="42.856998"
           y="324.64001"
           x="282.12" />
        <rect
           id="rect5003"
           style="opacity:1;fill:#2c2c2c;stroke:#000000;fill-opacity:1;stroke-opacity:1"
           ry="6.8571"
           height="42.856998"
           width="42.856998"
           y="324.64001"
           x="338.14001" />
        <rect
           id="rect5005"
           style="opacity:1;fill:#2c2c2c;stroke:#000000;fill-opacity:1;stroke-opacity:1"
           ry="6.8571"
           height="42.856998"
           width="42.856998"
           y="324.64001"
           x="393.10999" />
        <rect
           id="rect5007"
           style="opacity:1;fill:#2c2c2c;stroke:#000000;fill-opacity:1;stroke-opacity:1"
           ry="6.8571"
           height="42.856998"
           width="42.856998"
           y="324.64001"
           x="448.14001" />
        <rect
           id="rect5009"
           style="opacity:1;fill:#2c2c2c;stroke:#000000;fill-opacity:1;stroke-opacity:1"
           ry="6.8571"
           height="42.856998"
           width="42.856998"
           y="324.64001"
           x="504.14001" />
        <rect
           id="rect5011"
           style="opacity:1;fill:#2c2c2c;stroke:#000000;fill-opacity:1;stroke-opacity:1"
           ry="6.8571"
           height="42.856998"
           width="42.856998"
           y="324.64001"
           x="562.14001" />
        <rect
           id="rect5013"
           style="opacity:1;fill:#2c2c2c;stroke:#000000;fill-opacity:1;stroke-opacity:1"
           ry="6.8571"
           height="42.856998"
           width="42.856998"
           y="324.64001"
           x="620.14001" />
        <rect
           id="rect5015"
           style="opacity:1;fill:#2c2c2c;stroke:#000000;fill-opacity:1;stroke-opacity:1"
           ry="6.8571"
           height="42.856998"
           width="42.856998"
           y="324.64001"
           x="678.14001" />
        <rect
           id="rect5017"
           style="opacity:1;fill:#2c2c2c;stroke:#000000;fill-opacity:1;stroke-opacity:1"
           ry="6.8571"
           height="42.856998"
           width="42.856998"
           y="324.64001"
           x="734.14001" />
        <rect
           id="rect5019"
           style="opacity:1;fill:#2c2c2c;stroke:#000000;fill-opacity:1;stroke-opacity:1"
           ry="6.8571"
           height="42.856998"
           width="46.897999"
           y="324.64001"
           x="790.14001" />
        <rect
           id="rect5021"
           style="opacity:1;fill:#2c2c2c;stroke:#000000;fill-opacity:1;stroke-opacity:1"
           ry="6.8571"
           height="42.856998"
           width="140.42"
           y="324.64001"
           x="856.20001" />
        <rect
           id="rect5023"
           style="opacity:1;fill:#2c2c2c;fill-opacity:1;stroke:#000000;stroke-opacity:1"
           ry="6.8571"
           height="42.856998"
           width="71.140999"
           y="382.64001"
           x="159.42999" />
        <rect
           id="rect5025"
           style="opacity:1;fill:#2c2c2c;stroke:#000000;fill-opacity:1;stroke-opacity:1"
           ry="6.8571"
           height="42.856998"
           width="53.969002"
           y="382.64001"
           x="242.97" />
        <rect
           id="rect5027"
           style="opacity:1;fill:#2c2c2c;stroke:#000000;fill-opacity:1;stroke-opacity:1"
           ry="6.8571"
           height="42.856998"
           width="54.387001"
           y="382.64001"
           x="309.09" />
        <rect
           id="rect5029"
           style="opacity:1;fill:#b42500;stroke:#000000;fill-opacity:1;stroke-opacity:1"
           ry="6.8571"
           height="42.856998"
           width="321.82999"
           y="382.64001"
           x="381.98999" />
        <rect
           id="rect5031"
           style="opacity:1;fill:#2c2c2c;stroke:#000000;fill-opacity:1;stroke-opacity:1"
           ry="6.8571"
           height="42.856998"
           width="52.959"
           y="382.64001"
           x="726.31" />
        <rect
           id="rect5033"
           style="opacity:1;fill:#2c2c2c;stroke:#000000;fill-opacity:1;stroke-opacity:1"
           ry="6.8571"
           height="42.856998"
           width="55.988998"
           y="382.64001"
           x="796.45001" />
        <rect
           id="rect5035"
           style="opacity:1;fill:#2c2c2c;stroke:#000000;fill-opacity:1;stroke-opacity:1"
           ry="6.8571"
           height="42.856998"
           width="69.572998"
           y="382.64001"
           x="867.96002" />
      </g>
      <path
         id="text5037"
         style="fill:#e6e6e6;fill-opacity:1"
         d="m174.78 160.94c-0.28 1.08-0.78 1.62-1.5 1.62-0.41 0-0.94-0.1-1.59-0.3-0.64-0.2-1.04-0.3-1.19-0.3-0.37 0-0.65 0.2-0.84 0.6h-0.71c0.07-0.44 0.24-0.82 0.5-1.14 0.27-0.32 0.58-0.48 0.94-0.48 0.45 0 0.98 0.1 1.58 0.3s1.03 0.3 1.28 0.3c0.42 0 0.7-0.2 0.84-0.6h0.69zm-2.7 15.56l-1.76-2.6h1.54l1.32 2.6h-1.1z" />
      <path
         id="text5043"
         style="fill:#e6e6e6;fill-opacity:1"
         d="m224.08 165.01h-0.55c-0.4-2.62-0.6-4.44-0.6-5.46v-3.2h1.76v3.19c0 1-0.2 2.82-0.61 5.47zm-0.22 0.79c0.32 0 0.6 0.12 0.83 0.35 0.22 0.22 0.34 0.5 0.34 0.82 0 0.33-0.12 0.6-0.34 0.84-0.23 0.23-0.51 0.34-0.83 0.34-0.33 0-0.6-0.11-0.83-0.34-0.23-0.24-0.34-0.51-0.34-0.84 0-0.32 0.11-0.6 0.34-0.82 0.23-0.23 0.5-0.35 0.83-0.35zm0.89 22.2v-8.78l-2.33 1.46v-1.46c0.59-0.3 1.21-0.71 1.88-1.23 0.66-0.52 1.18-1.02 1.54-1.49h0.47v11.5h-1.56z" />
      <path
         id="text5049"
         style="fill:#e6e6e6;fill-opacity:1"
         d="m285.33 167.19c0.24 0.09 0.59 0.24 1.06 0.46-1 1-2.32 1.5-3.96 1.5-1.66 0-3-0.52-4-1.54-1-1.03-1.51-2.38-1.51-4.05 0-1.7 0.51-3.09 1.53-4.18 1.01-1.09 2.34-1.63 3.98-1.63 1.58 0 2.85 0.47 3.81 1.41 0.97 0.94 1.45 2.2 1.45 3.77 0 0.89-0.23 1.64-0.7 2.26s-1.08 0.92-1.85 0.92c-0.83 0-1.42-0.18-1.79-0.54-0.45 0.4-0.97 0.61-1.57 0.61-0.56 0-1.01-0.16-1.36-0.46-0.34-0.31-0.51-0.72-0.51-1.23 0-0.66 0.28-1.16 0.84-1.5s1.33-0.52 2.28-0.52c-0.07-0.76-0.38-1.15-0.92-1.15-0.55 0-0.98 0.15-1.3 0.44l-0.37-0.77c0.43-0.32 0.95-0.48 1.56-0.48 1.45 0 2.17 0.83 2.17 2.49v1.87c0.38 0.28 0.7 0.42 0.96 0.42 0.97 0 1.45-0.8 1.45-2.38 0-1.2-0.39-2.2-1.17-3.01-0.78-0.8-1.77-1.2-2.98-1.2-1.32 0-2.38 0.46-3.19 1.37-0.8 0.91-1.21 2.07-1.21 3.49 0 1.39 0.4 2.51 1.2 3.36s1.87 1.27 3.2 1.27c1.21 0 2.17-0.33 2.9-1zm-2.3-2.16v-1.83h-0.39c-1.02 0-1.53 0.42-1.53 1.25 0 0.28 0.1 0.51 0.3 0.7 0.2 0.18 0.44 0.27 0.74 0.27 0.33 0 0.62-0.13 0.88-0.39zm-6.35 23.07v-0.31l3.59-5.5c0.75-1.15 1.12-2.12 1.12-2.93 0-1.05-0.59-1.58-1.79-1.58-0.42 0-0.81 0.11-1.18 0.33s-0.64 0.5-0.81 0.84l-1.01-0.83c0.18-0.51 0.53-0.91 1.05-1.22 0.51-0.3 1.14-0.45 1.88-0.45 1.09 0 1.95 0.25 2.57 0.76s0.93 1.23 0.93 2.15c0 0.86-0.41 1.95-1.23 3.25l-2.57 4.08h4.48v1.41h-7.03z" />
      <path
         id="text5055"
         style="fill:#e6e6e6;fill-opacity:1"
         d="m340.12 160.6l-0.77 3.07h1.26v1h-1.52l-0.97 3.48h-0.99l0.97-3.48h-2.32l-0.97 3.48h-1.01l0.96-3.48h-1.21v-1h1.46l0.78-3.07h-1.35v-1h1.61l0.79-3.22h1.03l-0.81 3.22h2.32l0.81-3.22h0.99l-0.81 3.22h1.37v1h-1.62zm-3.31 0l-0.77 3.07h2.32l0.77-3.07h-2.32zm-2.7 26.58l0.75-1.2c0.51 0.56 1.15 0.84 1.94 0.84 1.44 0 2.17-0.7 2.17-2.12 0-0.65-0.21-1.17-0.64-1.57-0.42-0.41-0.98-0.61-1.68-0.61h-0.12v-1.27h0.07c1.32 0 1.98-0.58 1.98-1.75 0-1.21-0.62-1.82-1.86-1.82-0.68 0-1.22 0.22-1.62 0.68l-0.7-1.07c0.49-0.63 1.3-0.94 2.43-0.94 1 0 1.82 0.27 2.45 0.8s0.94 1.22 0.94 2.05c0 0.64-0.17 1.2-0.52 1.69s-0.77 0.82-1.24 0.98c0.66 0.22 1.18 0.58 1.57 1.09 0.38 0.51 0.58 1.14 0.58 1.86 0 1.07-0.34 1.89-1.01 2.47-0.67 0.57-1.61 0.86-2.83 0.86-0.51 0-1.01-0.09-1.5-0.28s-0.88-0.42-1.16-0.69z" />
      <path
         id="text5061"
         style="fill:#e6e6e6;fill-opacity:1"
         d="m390.06 168.65c-0.36-0.02-0.81-0.11-1.36-0.27s-0.92-0.31-1.13-0.45l0.57-1.43c0.27 0.19 0.63 0.37 1.07 0.52 0.45 0.15 0.84 0.23 1.19 0.23 0.61 0 1.1-0.17 1.47-0.5 0.37-0.34 0.56-0.76 0.56-1.28 0-0.32-0.06-0.61-0.16-0.86-0.11-0.25-0.26-0.45-0.44-0.6-0.19-0.16-0.61-0.39-1.26-0.69l-0.93-0.43c-0.78-0.37-1.32-0.8-1.63-1.3s-0.47-1.1-0.47-1.8c0-0.73 0.23-1.36 0.69-1.89 0.45-0.54 1.06-0.88 1.83-1.02v-1.25h1.08v1.19c1.12 0.05 1.88 0.25 2.28 0.61l-0.46 1.36c-0.21-0.15-0.53-0.29-0.96-0.43-0.42-0.14-0.82-0.21-1.18-0.21-0.53 0-0.95 0.15-1.26 0.45-0.3 0.3-0.45 0.69-0.45 1.16 0 0.29 0.05 0.56 0.16 0.8s0.27 0.44 0.47 0.61 0.6 0.39 1.19 0.67l0.71 0.34c0.82 0.38 1.41 0.84 1.79 1.39 0.37 0.55 0.56 1.25 0.56 2.11 0 0.71-0.25 1.33-0.76 1.87-0.5 0.53-1.19 0.87-2.09 1.02v1.81h-1.08v-1.73zm3.31 16.69v3.12h-1.48v-3.12h-5.21v-0.89l6.14-7.48h0.55v7.17h1.16v1.2h-1.16zm-1.48-5.26l-3.36 4.06h3.36v-4.06z" />
      <path
         id="text5067"
         style="fill:#e6e6e6;fill-opacity:1"
         d="m441.63 168.15h-0.99l6.9-11.8h0.98l-6.89 11.8zm-1.22-9.23c0-0.77 0.21-1.39 0.63-1.86s0.96-0.71 1.61-0.71c0.64 0 1.15 0.23 1.53 0.7 0.39 0.47 0.58 1.14 0.58 2.02 0 0.81-0.2 1.45-0.61 1.93s-0.93 0.72-1.57 0.72c-1.45 0-2.17-0.94-2.17-2.8zm0.98 0.08c0 0.61 0.1 1.08 0.31 1.41 0.21 0.34 0.48 0.51 0.81 0.51 0.84 0 1.26-0.64 1.26-1.92 0-1.24-0.38-1.85-1.14-1.85-0.38 0-0.68 0.16-0.91 0.5-0.22 0.33-0.33 0.78-0.33 1.35zm3.24 6.36c0-0.77 0.21-1.39 0.63-1.86 0.42-0.48 0.96-0.71 1.61-0.71 0.64 0 1.15 0.23 1.53 0.7 0.39 0.47 0.58 1.14 0.58 2.01 0 0.82-0.21 1.46-0.61 1.94-0.41 0.47-0.93 0.71-1.57 0.71-1.45 0-2.17-0.93-2.17-2.79zm0.98 0.07c0 0.61 0.1 1.09 0.31 1.42 0.21 0.34 0.47 0.51 0.81 0.51 0.84 0 1.26-0.64 1.26-1.92 0-1.24-0.38-1.86-1.14-1.86-0.39 0-0.69 0.17-0.91 0.5-0.22 0.34-0.33 0.79-0.33 1.35zm-3.87 16.98l-0.53-0.37v-5.54h5.7v1.33h-4.21v2.78c0.38-0.28 0.87-0.43 1.47-0.43 1.06 0 1.87 0.32 2.43 0.96 0.56 0.63 0.84 1.54 0.84 2.71 0 2.87-1.28 4.3-3.84 4.3-1.06 0-1.95-0.29-2.65-0.89l0.6-1.3c0.71 0.58 1.39 0.86 2.05 0.86 1.46 0 2.2-0.91 2.2-2.75 0-1.7-0.73-2.56-2.17-2.56-0.7 0-1.33 0.3-1.89 0.9z" />
      <path
         id="text5073"
         style="fill:#e6e6e6;fill-opacity:1"
         d="m506.29 160.91l-1.9-3.5-1.94 3.53h-0.96l2.49-4.44h0.84l2.46 4.41h-0.99zm-0.71 15.44l0.76 0.83c-0.46 0.19-1.12 0.8-1.99 1.85s-1.35 1.86-1.44 2.43c0.43-0.42 1.03-0.63 1.8-0.63 1.01 0 1.82 0.33 2.43 0.97 0.61 0.65 0.92 1.54 0.92 2.67 0 1.12-0.32 2.02-0.94 2.7-0.63 0.68-1.42 1.02-2.37 1.02-2.51 0-3.76-1.66-3.76-4.99 0-1.39 0.49-2.8 1.47-4.25s2.02-2.32 3.12-2.6zm-2.95 8.07c0 1.63 0.67 2.44 2.01 2.44 0.56 0 1-0.21 1.33-0.63 0.32-0.43 0.49-0.99 0.49-1.69 0-0.72-0.18-1.3-0.52-1.73s-0.79-0.65-1.33-0.65c-1.32 0-1.98 0.75-1.98 2.26z" />
      <path
         id="text5079"
         style="fill:#e6e6e6;fill-opacity:1"
         d="m564.1 167.7c-0.76 0.37-1.67 0.55-2.73 0.55-1.09 0-1.93-0.32-2.53-0.96-0.59-0.65-0.89-1.56-0.89-2.73 0-0.61 0.09-1.13 0.27-1.58 0.18-0.44 0.51-0.9 0.99-1.37-0.74-0.73-1.1-1.49-1.1-2.27 0-0.8 0.3-1.48 0.9-2.05 0.6-0.56 1.41-0.84 2.42-0.84 1.07 0 1.9 0.23 2.48 0.71l-0.65 1.2c-0.59-0.49-1.12-0.74-1.59-0.74-1.39 0-2.08 0.62-2.08 1.87 0 0.68 0.3 1.25 0.91 1.72h2.9v-1.43l1.49-0.57v2.03h1.94v1.24h-1.94v2.58c0 0.72 0.1 1.21 0.29 1.47s0.52 0.39 1 0.39c0.28 0 0.61-0.09 0.99-0.29l0.21 1.39c-0.55 0.15-1.17 0.23-1.87 0.23-0.49 0-0.96-0.18-1.41-0.55zm-0.7-2.06v-3.16h-3.14c-0.5 0.64-0.75 1.31-0.75 2 0 1.63 0.8 2.44 2.39 2.44 0.7 0 1.24-0.13 1.59-0.38-0.06-0.24-0.09-0.54-0.09-0.9zm-3.21 22.45h-1.74c0.39-1.22 1.04-2.84 1.95-4.85s1.74-3.73 2.5-5.15h-5.4v-1.49h7.42v0.61l-1.01 1.99c-0.34 0.67-0.69 1.4-1.06 2.21-0.37 0.8-0.73 1.62-1.09 2.45-0.35 0.83-0.66 1.61-0.93 2.32-0.26 0.71-0.48 1.35-0.64 1.91z" />
      <path
         id="text5085"
         style="fill:#e6e6e6;fill-opacity:1"
         d="m622.05 159.19l-1.36 0.02 1.24 0.82 0.37 0.49-0.96 0.81-0.42-0.55-0.64-1.24-0.71 1.27-0.34 0.5-1.02-0.79 0.39-0.54 1.24-0.65-1.38-0.21-0.7-0.25 0.56-1.17 0.75 0.28 0.98 0.75-0.5-1.6v-0.62h1.38v0.59l-0.47 1.65 1.23-0.84 0.58-0.21 0.45 1.26-0.67 0.23zm-1.91 22.44c-0.48-0.26-0.88-0.63-1.19-1.09-0.3-0.46-0.46-0.94-0.46-1.44 0-0.85 0.29-1.52 0.86-2.01 0.58-0.5 1.32-0.75 2.24-0.75 0.98 0 1.74 0.25 2.28 0.75 0.55 0.49 0.82 1.17 0.82 2.02 0 0.5-0.17 1.01-0.5 1.53-0.32 0.52-0.7 0.9-1.14 1.14 1.38 0.77 2.07 1.79 2.07 3.04 0 1.06-0.32 1.88-0.96 2.46-0.63 0.58-1.5 0.87-2.61 0.87-2.32 0-3.47-1.11-3.47-3.33 0-0.64 0.2-1.27 0.59-1.89 0.4-0.62 0.89-1.05 1.47-1.3zm1.91-0.49c0.71-0.67 1.07-1.36 1.07-2.07 0-0.43-0.15-0.77-0.43-1.02s-0.65-0.38-1.1-0.38c-1.03 0-1.54 0.47-1.54 1.42 0 0.69 0.67 1.38 2 2.05zm-0.69 1.17c-1.15 0.62-1.72 1.45-1.72 2.51 0 0.57 0.18 1.04 0.53 1.43 0.36 0.38 0.81 0.57 1.38 0.57 0.58 0 1.06-0.19 1.44-0.56 0.38-0.38 0.56-0.86 0.56-1.44 0-0.42-0.13-0.82-0.39-1.19s-0.86-0.81-1.8-1.32z" />
      <path
         id="text5091"
         style="fill:#e6e6e6;fill-opacity:1"
         d="m678.22 156.47v0.65c-1.03 1.49-1.55 3.66-1.55 6.52 0 3.4 0.52 5.69 1.55 6.88v0.82c-1.05-0.74-1.87-1.79-2.45-3.16-0.58-1.38-0.87-2.89-0.87-4.55 0-1.42 0.33-2.85 0.99-4.3 0.66-1.44 1.44-2.4 2.33-2.86zm-1.77 31.72l-0.76-0.84c0.45-0.18 1.12-0.79 1.99-1.84s1.35-1.86 1.44-2.42c-0.43 0.41-1.03 0.61-1.81 0.61-1.01 0-1.82-0.32-2.42-0.96-0.61-0.65-0.92-1.54-0.92-2.67 0-1.12 0.31-2.02 0.94-2.7s1.42-1.03 2.37-1.03c2.51 0 3.76 1.67 3.76 5 0 1.38-0.49 2.8-1.47 4.25s-2.02 2.32-3.12 2.6zm2.95-8.07c0-1.63-0.67-2.45-2.01-2.45-0.56 0-1 0.21-1.33 0.64-0.32 0.42-0.49 0.98-0.49 1.68 0 0.73 0.17 1.3 0.52 1.74 0.34 0.43 0.78 0.65 1.33 0.65 1.32 0 1.98-0.76 1.98-2.26z" />
      <path
         id="text5097"
         style="fill:#e6e6e6;fill-opacity:1"
         d="m735.15 171.34v-0.82c1.04-1.19 1.55-3.48 1.55-6.87 0-2.86-0.51-5.04-1.55-6.53v-0.65c0.9 0.47 1.67 1.42 2.33 2.87 0.66 1.44 0.99 2.87 0.99 4.29 0 1.66-0.29 3.18-0.87 4.55s-1.39 2.43-2.45 3.16zm-1 10.59c0-1.65 0.33-2.99 1-4.03 0.66-1.03 1.6-1.55 2.81-1.55 1.2 0 2.1 0.43 2.7 1.3 0.6 0.86 0.9 2.37 0.9 4.53 0 1.85-0.31 3.31-0.94 4.38-0.63 1.06-1.56 1.59-2.77 1.59s-2.13-0.43-2.76-1.29-0.94-2.5-0.94-4.93zm1.56 0.14c0 3.17 0.68 4.75 2.03 4.75 0.78 0 1.35-0.35 1.71-1.05 0.37-0.7 0.55-1.93 0.55-3.7 0-1.21-0.07-2.1-0.21-2.67-0.14-0.56-0.37-0.99-0.68-1.29-0.31-0.29-0.71-0.43-1.19-0.43-1.47 0-2.21 1.46-2.21 4.39z" />
      <path
         id="text5103"
         style="fill:#e6e6e6;fill-opacity:1"
         d="m789.81 162.91v-1.01h8.47v1.01h-8.47zm1.3 14.06v-1.36h3.35v1.36h-3.35z" />
      <path
         id="text5109"
         style="fill:#e6e6e6;fill-opacity:1"
         d="m852.44 161.04h2.73v1.1h-2.73v2.69h-1.1v-2.69h-2.72v-1.1h2.72v-2.68h1.1v2.68zm2.73 18.67v1.1h-6.55v-1.1h6.55zm0 2.65v1.11h-6.55v-1.11h6.55z" />
      <path
         id="text5115"
         style="fill:#e6e6e6;fill-opacity:1"
         d="m908.66 172.42h-3.27v-11.45c1.39-0.06 2.39-0.1 3.01-0.1 1.13 0 2 0.25 2.62 0.73 0.62 0.49 0.93 1.19 0.93 2.09 0 0.53-0.2 1.02-0.59 1.46-0.4 0.43-0.84 0.71-1.31 0.82 0.9 0.21 1.56 0.58 1.98 1.08 0.41 0.51 0.62 1.19 0.62 2.06 0 1.01-0.37 1.81-1.11 2.41s-1.7 0.9-2.88 0.9zm-1.71-10.2v3.29c0.33 0.03 0.74 0.05 1.22 0.05 1.48 0 2.22-0.6 2.22-1.81 0-1.05-0.68-1.58-2.04-1.58-0.52 0-0.99 0.02-1.4 0.05zm0 4.5v4.37c0.54 0.05 0.95 0.08 1.24 0.08 0.98 0 1.69-0.19 2.14-0.55 0.45-0.37 0.68-0.95 0.68-1.76 0-0.74-0.22-1.29-0.65-1.64-0.43-0.36-1.15-0.54-2.15-0.54l-1.26 0.04zm12.11 4.74c-0.59 0.74-1.5 1.11-2.73 1.11-0.65 0-1.22-0.23-1.7-0.71s-0.72-1.07-0.72-1.78c0-0.85 0.37-1.56 1.11-2.15s1.69-0.88 2.84-0.88c0.31 0 0.66 0.07 1.06 0.2 0-1.35-0.6-2.03-1.81-2.03-0.93 0-1.64 0.25-2.14 0.75l-0.63-1.24c0.28-0.23 0.67-0.42 1.17-0.59 0.5-0.16 0.97-0.24 1.43-0.24 1.21 0 2.09 0.27 2.64 0.82 0.55 0.56 0.83 1.43 0.83 2.64v3c0 0.73 0.21 1.22 0.65 1.46v0.75c-0.6 0-1.05-0.09-1.35-0.26s-0.52-0.46-0.65-0.85zm-0.14-3.15c-0.47-0.1-0.8-0.16-0.98-0.16-0.75 0-1.37 0.2-1.84 0.58-0.47 0.39-0.71 0.84-0.71 1.37 0 0.87 0.51 1.3 1.54 1.3 0.75 0 1.41-0.35 1.99-1.07v-2.02zm10.13-3.58l-0.73 1.05c-0.15-0.15-0.42-0.3-0.8-0.43-0.38-0.14-0.76-0.2-1.13-0.2-0.81 0-1.45 0.28-1.92 0.84-0.48 0.57-0.71 1.34-0.71 2.33 0 0.98 0.24 1.72 0.72 2.24 0.49 0.51 1.16 0.76 2.02 0.76 0.67 0 1.34-0.25 2.01-0.77l0.59 1.25c-0.8 0.52-1.78 0.77-2.96 0.77-1.14 0-2.08-0.38-2.83-1.14-0.74-0.77-1.12-1.81-1.12-3.11 0-1.34 0.39-2.41 1.16-3.21 0.78-0.81 1.84-1.21 3.18-1.21 0.43 0 0.9 0.09 1.41 0.27 0.5 0.18 0.87 0.37 1.11 0.56zm7.03 7.69l-2.62-4.19-1.3 1.34v2.85h-1.48v-11.8h1.48v7.32l3.21-3.89h1.73l-2.68 3.18 3.27 5.19h-1.61zm2.11-0.5l0.53-1.41c0.83 0.54 1.49 0.81 2 0.81 0.91 0 1.37-0.38 1.37-1.15 0-0.55-0.44-1.03-1.33-1.42-0.68-0.32-1.14-0.55-1.37-0.71-0.24-0.17-0.45-0.35-0.62-0.56-0.18-0.2-0.31-0.42-0.39-0.65-0.09-0.23-0.13-0.48-0.13-0.75 0-0.68 0.25-1.22 0.75-1.61 0.5-0.38 1.15-0.57 1.96-0.57 0.61 0 1.38 0.19 2.3 0.57l-0.42 1.38c-0.59-0.47-1.18-0.7-1.77-0.7-0.36 0-0.65 0.08-0.9 0.25-0.24 0.16-0.36 0.37-0.36 0.63 0 0.53 0.31 0.94 0.92 1.22l1.06 0.48c0.65 0.3 1.12 0.64 1.42 1.02s0.45 0.85 0.45 1.43c0 0.75-0.27 1.33-0.79 1.76-0.53 0.42-1.26 0.63-2.19 0.63-0.88 0-1.71-0.21-2.49-0.65zm8.5 0.04v3.74h-1.48v-11.65h1.48v0.69c0.57-0.56 1.25-0.84 2.04-0.84 1.19 0 2.12 0.36 2.78 1.1s0.99 1.83 0.99 3.25c0 1.28-0.33 2.31-1 3.12-0.67 0.8-1.63 1.2-2.89 1.2-0.36 0-0.73-0.06-1.14-0.18-0.4-0.13-0.66-0.27-0.78-0.43zm0-6.1v4.87c0.1 0.14 0.3 0.28 0.6 0.4 0.3 0.13 0.59 0.19 0.88 0.19 1.84 0 2.77-1.04 2.77-3.12 0-1.06-0.22-1.83-0.66-2.32s-1.14-0.73-2.1-0.73c-0.21 0-0.47 0.07-0.77 0.21-0.3 0.15-0.54 0.31-0.72 0.5zm12.15 5.6c-0.59 0.74-1.5 1.11-2.72 1.11-0.66 0-1.23-0.23-1.71-0.71s-0.72-1.07-0.72-1.78c0-0.85 0.37-1.56 1.11-2.15s1.69-0.88 2.84-0.88c0.31 0 0.67 0.07 1.06 0.2 0-1.35-0.6-2.03-1.81-2.03-0.93 0-1.64 0.25-2.14 0.75l-0.63-1.24c0.29-0.23 0.67-0.42 1.17-0.59 0.5-0.16 0.97-0.24 1.43-0.24 1.21 0 2.09 0.27 2.64 0.82 0.55 0.56 0.83 1.43 0.83 2.64v3c0 0.73 0.22 1.22 0.65 1.46v0.75c-0.6 0-1.05-0.09-1.35-0.26s-0.52-0.46-0.65-0.85zm-0.14-3.15c-0.47-0.1-0.79-0.16-0.98-0.16-0.75 0-1.36 0.2-1.84 0.58-0.47 0.39-0.71 0.84-0.71 1.37 0 0.87 0.51 1.3 1.54 1.3 0.75 0 1.41-0.35 1.99-1.07v-2.02zm10.13-3.58l-0.73 1.05c-0.15-0.15-0.42-0.3-0.8-0.43-0.38-0.14-0.76-0.2-1.13-0.2-0.81 0-1.45 0.28-1.92 0.84-0.48 0.57-0.71 1.34-0.71 2.33 0 0.98 0.24 1.72 0.72 2.24 0.49 0.51 1.16 0.76 2.02 0.76 0.67 0 1.34-0.25 2.02-0.77l0.58 1.25c-0.8 0.52-1.78 0.77-2.96 0.77-1.14 0-2.08-0.38-2.83-1.14-0.74-0.77-1.11-1.81-1.11-3.11 0-1.34 0.38-2.41 1.16-3.21 0.77-0.81 1.83-1.21 3.17-1.21 0.43 0 0.9 0.09 1.41 0.27 0.5 0.18 0.88 0.37 1.11 0.56zm8.68 3.65h-6.03c0 0.98 0.26 1.73 0.8 2.26 0.47 0.46 1.08 0.68 1.83 0.68 0.85 0 1.56-0.24 2.12-0.74l0.63 1.07c-0.23 0.23-0.58 0.43-1.06 0.6-0.59 0.22-1.25 0.32-1.98 0.32-1.05 0-1.95-0.35-2.68-1.07-0.82-0.78-1.23-1.84-1.23-3.17 0-1.38 0.42-2.48 1.26-3.32 0.75-0.74 1.64-1.11 2.66-1.11 1.2 0 2.13 0.33 2.81 1 0.66 0.65 0.98 1.51 0.98 2.57 0 0.33-0.04 0.63-0.11 0.91zm-3.6-3.23c-0.67 0-1.22 0.21-1.67 0.64-0.43 0.4-0.67 0.91-0.73 1.51h4.64c0-0.6-0.19-1.1-0.57-1.5-0.41-0.44-0.97-0.65-1.67-0.65z" />
      <path
         id="text5119"
         style="fill:#e6e6e6;fill-opacity:1"
         d="m172.02 223.16v10.03h-1.56v-10.03h-3.64v-1.41h9v1.41h-3.8zm9.72 9.07c-0.6 0.75-1.5 1.12-2.73 1.12-0.66 0-1.22-0.24-1.71-0.71-0.48-0.48-0.72-1.07-0.72-1.78 0-0.85 0.37-1.57 1.11-2.15 0.75-0.59 1.69-0.88 2.84-0.88 0.32 0 0.67 0.07 1.07 0.2 0-1.35-0.61-2.03-1.82-2.03-0.92 0-1.64 0.25-2.14 0.75l-0.62-1.24c0.28-0.23 0.67-0.43 1.17-0.59 0.49-0.17 0.97-0.25 1.42-0.25 1.22 0 2.1 0.28 2.65 0.83s0.82 1.43 0.82 2.63v3c0 0.74 0.22 1.23 0.66 1.47v0.74c-0.61 0-1.06-0.08-1.36-0.25-0.3-0.18-0.51-0.46-0.64-0.86zm-0.14-3.14c-0.47-0.11-0.8-0.16-0.99-0.16-0.75 0-1.36 0.19-1.83 0.58-0.48 0.38-0.71 0.84-0.71 1.36 0 0.87 0.51 1.31 1.53 1.31 0.75 0 1.42-0.36 2-1.07v-2.02zm5.08 3.5l-0.52 0.76h-0.74v-11.95h1.48v4.04c0.14-0.19 0.41-0.37 0.79-0.53 0.39-0.16 0.77-0.24 1.15-0.24 1.15 0 2.07 0.4 2.78 1.19 0.72 0.79 1.07 1.79 1.07 3 0 1.39-0.36 2.49-1.07 3.29s-1.68 1.2-2.9 1.2c-0.39 0-0.78-0.07-1.17-0.22-0.38-0.15-0.67-0.33-0.87-0.54zm0.22-6.01v4.83c0 0.08 0.19 0.22 0.56 0.41s0.65 0.28 0.84 0.28c1.01 0 1.73-0.24 2.17-0.73 0.44-0.48 0.66-1.29 0.66-2.43 0-0.95-0.26-1.69-0.77-2.22s-1.2-0.8-2.06-0.8c-0.18 0-0.44 0.08-0.76 0.24-0.33 0.15-0.54 0.29-0.64 0.42z" />
      <path
         id="text5123"
         style="fill:#e6e6e6;fill-opacity:1"
         d="m260.39 233.66l-0.23 1.52c-2.73 0-4.52-0.76-5.37-2.27-0.16 0.06-0.51 0.1-1.04 0.1-1.44 0-2.57-0.57-3.38-1.69-0.82-1.13-1.23-2.57-1.23-4.33 0-1.65 0.42-3.03 1.25-4.15 0.82-1.12 1.95-1.68 3.36-1.68 1.59 0 2.81 0.52 3.65 1.54 0.85 1.03 1.27 2.46 1.27 4.29 0 2.63-0.78 4.44-2.36 5.42 0.57 0.83 1.53 1.25 2.86 1.25h1.22zm-6.64-11.09c-0.97 0-1.7 0.4-2.21 1.19-0.5 0.79-0.76 1.87-0.76 3.23 0 1.31 0.26 2.41 0.78 3.29s1.25 1.32 2.19 1.32c1.08 0 1.89-0.41 2.45-1.22 0.55-0.82 0.83-1.95 0.83-3.39 0-2.95-1.09-4.42-3.28-4.42z" />
      <path
         id="text5127"
         style="fill:#e6e6e6;fill-opacity:1"
         d="m316.11 233.44h-0.5l-2.72-7.89-2.55 7.89h-0.49l-3.61-11.6h1.62l2.3 8 2.52-8h0.54l2.49 7.98 2.33-7.98h1.63l-3.56 11.6z" />
      <path
         id="text5131"
         style="fill:#e6e6e6;fill-opacity:1"
         d="m363.34 223.25v3.18h3.78v1.33h-3.78v4.12h5.19v1.41h-6.75v-11.45h6.83v1.41h-5.27z" />
      <path
         id="text5135"
         style="fill:#e6e6e6;fill-opacity:1"
         d="m427.81 233.29l-3.06-4.92c-0.35 0-0.9-0.02-1.65-0.07v4.99h-1.57v-11.45c0.06 0 0.47-0.02 1.22-0.06 0.75-0.03 1.3-0.05 1.64-0.05 2.75 0 4.13 1.09 4.13 3.28 0 0.72-0.22 1.36-0.67 1.94-0.44 0.57-0.96 0.93-1.57 1.07l3.32 5.27h-1.79zm-4.71-10.04v3.72c0.37 0.05 0.74 0.08 1.09 0.08 0.94 0 1.62-0.15 2.05-0.46 0.42-0.3 0.64-0.84 0.64-1.61 0-0.64-0.23-1.11-0.69-1.39s-1.18-0.42-2.17-0.42c-0.16 0-0.46 0.03-0.92 0.08z" />
      <path
         id="text5139"
         style="fill:#e6e6e6;fill-opacity:1"
         d="m476.16 223.25v10.04h-1.57v-10.04h-3.64v-1.41h9.01v1.41h-3.8z" />
      <path
         id="text5143"
         style="fill:#e6e6e6;fill-opacity:1"
         d="m536.71 228.16v5.13h-1.56v-5.13l-3.69-6.32h1.61l2.85 5 2.85-5h1.61l-3.67 6.32z" />
      <path
         id="text5147"
         style="fill:#e6e6e6;fill-opacity:1"
         d="m586.11 221.75h1.56v7.83c0 0.7 0.23 1.27 0.67 1.72s1.03 0.68 1.76 0.68c0.77 0 1.37-0.22 1.82-0.66 0.44-0.43 0.66-1.03 0.66-1.78v-7.79h1.56v7.96c0 1.15-0.36 2.06-1.08 2.7-0.72 0.65-1.7 0.98-2.95 0.98-1.28 0-2.27-0.32-2.96-0.96-0.69-0.63-1.04-1.54-1.04-2.73v-7.95z" />
      <path
         id="text5151"
         style="fill:#e6e6e6;fill-opacity:1"
         d="m651.03 233.29v-11.45h1.57v11.45h-1.57z" />
      <path
         id="text5155"
         style="fill:#e6e6e6;fill-opacity:1"
         d="m700.7 227.47c0-1.66 0.42-3.04 1.25-4.16 0.83-1.11 1.95-1.67 3.36-1.67 1.59 0 2.81 0.51 3.65 1.54 0.85 1.03 1.27 2.45 1.27 4.29 0 1.88-0.42 3.35-1.27 4.42-0.85 1.06-2.07 1.59-3.65 1.59-1.44 0-2.57-0.56-3.39-1.68-0.81-1.13-1.22-2.57-1.22-4.33zm1.64 0c0 1.31 0.26 2.41 0.78 3.29s1.25 1.32 2.19 1.32c1.07 0 1.88-0.41 2.44-1.21 0.56-0.81 0.84-1.94 0.84-3.4 0-2.95-1.09-4.42-3.28-4.42-0.97 0-1.71 0.39-2.21 1.18-0.51 0.8-0.76 1.87-0.76 3.24z" />
      <path
         id="text5159"
         style="fill:#e6e6e6;fill-opacity:1"
         d="m761.46 228.88v4.41h-1.56v-11.45c1.18-0.05 1.89-0.07 2.14-0.07 3.32 0 4.98 1.11 4.98 3.33 0 2.57-1.47 3.86-4.4 3.86-0.18 0-0.57-0.03-1.16-0.08zm0-5.63v4.23c0.66 0.05 1.01 0.07 1.05 0.07 1.93 0 2.9-0.76 2.9-2.28 0-1.4-1.03-2.1-3.1-2.1-0.21 0-0.49 0.03-0.85 0.08z" />
      <path
         id="text5163"
         style="fill:#e6e6e6;fill-opacity:1"
         d="m822.68 229.63c-0.89 0-1.63-0.22-2.21-0.64-0.58-0.43-0.87-0.99-0.87-1.69 0-0.37 0.09-0.92 0.28-1.67 0.2-0.75 0.29-1.32 0.29-1.71 0-1.04-0.54-1.59-1.63-1.66v-0.66c0.52-0.04 0.92-0.22 1.2-0.54 0.29-0.32 0.43-0.74 0.43-1.25 0-0.35-0.09-0.85-0.29-1.51-0.19-0.65-0.28-1.14-0.28-1.45 0-0.67 0.29-1.21 0.87-1.62s1.29-0.62 2.14-0.62h1.16v1.04h-1.37c-0.85 0-1.28 0.48-1.28 1.44 0 0.34 0.08 0.77 0.24 1.3 0.17 0.53 0.25 0.96 0.25 1.28 0 0.82-0.58 1.57-1.76 2.25 0.55 0.22 0.98 0.51 1.29 0.87s0.47 0.72 0.47 1.08c0 0.34-0.08 0.81-0.25 1.4-0.16 0.6-0.24 1.1-0.24 1.48 0 1.19 0.68 1.78 2.05 1.78h0.6v1.1h-1.09zm-2.86 20v-15.08h3.62v1.33h-2.06v12.42h2.06v1.33h-3.62z" />
      <path
         id="text5169"
         style="fill:#e6e6e6;fill-opacity:1"
         d="m878.18 229.05v-1.09h0.59c1.37 0 2.06-0.59 2.06-1.78 0-0.39-0.08-0.88-0.25-1.48-0.16-0.6-0.24-1.07-0.24-1.4 0-0.36 0.15-0.72 0.47-1.08 0.31-0.36 0.74-0.65 1.28-0.88-1.17-0.67-1.75-1.42-1.75-2.25 0-0.31 0.08-0.74 0.24-1.27 0.17-0.53 0.25-0.97 0.25-1.3 0-0.96-0.43-1.44-1.28-1.44h-1.37v-1.04h1.16c0.85 0 1.56 0.2 2.14 0.62 0.58 0.41 0.87 0.95 0.87 1.61 0 0.32-0.09 0.81-0.29 1.46-0.19 0.65-0.29 1.16-0.29 1.51 0 0.51 0.15 0.93 0.43 1.25 0.29 0.32 0.69 0.5 1.21 0.54v0.66c-1.09 0.07-1.64 0.62-1.64 1.65 0 0.39 0.1 0.95 0.29 1.69 0.2 0.75 0.29 1.31 0.29 1.7 0 0.69-0.29 1.26-0.87 1.68-0.59 0.43-1.32 0.64-2.21 0.64h-1.09zm4 20h-3.62v-1.32h2.06v-12.43h-2.06v-1.32h3.62v15.07z" />
      <path
         id="text5175"
         style="fill:#e6e6e6;fill-opacity:1"
         d="m941.17 229.44v-13.13h1.14v13.13h-1.14zm0.39 17.85l-4.02-11.49h1.11l4.03 11.49h-1.12z" />
      <path
         id="text5181"
         style="fill:#e6e6e6;fill-opacity:1"
         d="m172.12 274.12l-0.52 1.34c-0.5-0.36-1.29-0.55-2.36-0.55-1.01 0-1.81 0.44-2.42 1.3-0.61 0.87-0.91 1.98-0.91 3.34 0 1.31 0.31 2.36 0.93 3.17 0.63 0.81 1.43 1.22 2.41 1.22 1.08 0 1.9-0.38 2.48-1.14l0.86 1.19c-0.91 0.9-2.07 1.35-3.5 1.35-1.49 0-2.67-0.54-3.53-1.61-0.86-1.08-1.29-2.5-1.29-4.27 0-1.71 0.46-3.13 1.37-4.26 0.92-1.13 2.11-1.69 3.56-1.69 1.24 0 2.22 0.2 2.92 0.61zm6.87 10.07c-0.6 0.74-1.5 1.11-2.73 1.11-0.65 0-1.22-0.23-1.71-0.71-0.48-0.48-0.72-1.07-0.72-1.78 0-0.85 0.37-1.56 1.12-2.15 0.74-0.59 1.68-0.88 2.84-0.88 0.31 0 0.66 0.07 1.06 0.2 0-1.35-0.61-2.03-1.81-2.03-0.93 0-1.65 0.25-2.15 0.75l-0.62-1.24c0.28-0.23 0.67-0.43 1.17-0.59s0.97-0.25 1.42-0.25c1.22 0 2.1 0.28 2.65 0.83s0.82 1.43 0.82 2.64v3c0 0.73 0.22 1.22 0.66 1.46v0.75c-0.61 0-1.06-0.09-1.36-0.26s-0.51-0.46-0.64-0.85zm-0.14-3.15c-0.47-0.11-0.8-0.16-0.99-0.16-0.75 0-1.36 0.2-1.83 0.58-0.48 0.39-0.71 0.84-0.71 1.37 0 0.87 0.51 1.3 1.54 1.3 0.75 0 1.41-0.35 1.99-1.07v-2.02zm5.3 3.65v3.74h-1.48v-11.65h1.48v0.69c0.57-0.56 1.24-0.85 2.04-0.85 1.19 0 2.11 0.37 2.78 1.11 0.66 0.74 0.99 1.83 0.99 3.25 0 1.27-0.34 2.31-1 3.12-0.67 0.8-1.63 1.2-2.89 1.2-0.36 0-0.74-0.06-1.14-0.18-0.4-0.13-0.66-0.27-0.78-0.43zm0-6.1v4.87c0.1 0.14 0.29 0.28 0.6 0.4 0.3 0.13 0.59 0.19 0.88 0.19 1.84 0 2.76-1.04 2.76-3.12 0-1.06-0.21-1.83-0.65-2.32s-1.14-0.74-2.1-0.74c-0.21 0-0.47 0.08-0.77 0.22-0.3 0.15-0.54 0.31-0.72 0.5zm6.88 6.06l0.52-1.41c0.83 0.54 1.5 0.81 2 0.81 0.92 0 1.38-0.38 1.38-1.15 0-0.55-0.45-1.03-1.33-1.42-0.68-0.32-1.14-0.55-1.38-0.71-0.24-0.17-0.44-0.35-0.62-0.56-0.17-0.2-0.3-0.42-0.39-0.65-0.08-0.23-0.13-0.48-0.13-0.75 0-0.69 0.25-1.22 0.75-1.61 0.5-0.38 1.16-0.58 1.96-0.58 0.61 0 1.38 0.2 2.31 0.58l-0.42 1.38c-0.59-0.47-1.18-0.71-1.78-0.71-0.35 0-0.65 0.09-0.89 0.25-0.24 0.17-0.37 0.38-0.37 0.64 0 0.53 0.31 0.94 0.92 1.22l1.06 0.48c0.65 0.3 1.13 0.64 1.42 1.02 0.3 0.38 0.45 0.85 0.45 1.43 0 0.75-0.26 1.33-0.79 1.76-0.53 0.42-1.26 0.63-2.19 0.63-0.88 0-1.71-0.21-2.48-0.65zm11.94 0.5v-11.45h1.57v10.04h5.17v1.41h-6.74zm7.43-4.2c0-1.3 0.35-2.34 1.05-3.13 0.69-0.8 1.61-1.2 2.74-1.2 1.2 0 2.13 0.39 2.79 1.15s0.99 1.82 0.99 3.18c0 1.34-0.34 2.41-1.01 3.19-0.68 0.78-1.6 1.16-2.77 1.16-1.19 0-2.12-0.39-2.79-1.18-0.66-0.78-1-1.84-1-3.17zm1.57 0c0 2.09 0.74 3.14 2.22 3.14 0.69 0 1.24-0.28 1.63-0.84s0.59-1.33 0.59-2.3c0-2.08-0.74-3.11-2.22-3.11-0.68 0-1.22 0.27-1.62 0.82-0.4 0.56-0.6 1.32-0.6 2.29zm13.89-3.49l-0.74 1.05c-0.15-0.15-0.42-0.3-0.8-0.43-0.38-0.14-0.76-0.21-1.13-0.21-0.81 0-1.45 0.29-1.92 0.85-0.47 0.57-0.71 1.34-0.71 2.33 0 0.98 0.24 1.72 0.73 2.23 0.48 0.52 1.15 0.77 2.01 0.77 0.67 0 1.34-0.25 2.02-0.77l0.58 1.25c-0.79 0.52-1.78 0.77-2.96 0.77-1.14 0-2.08-0.38-2.83-1.14-0.74-0.77-1.11-1.81-1.11-3.11 0-1.34 0.38-2.41 1.16-3.21 0.77-0.81 1.83-1.22 3.17-1.22 0.43 0 0.9 0.1 1.41 0.28 0.5 0.18 0.88 0.37 1.12 0.56zm7.03 7.69l-2.63-4.19-1.29 1.34v2.85h-1.49v-11.8h1.49v7.32l3.2-3.89h1.73l-2.68 3.18 3.28 5.19h-1.61z" />
      <path
         id="text5185"
         style="fill:#e6e6e6;fill-opacity:1"
         d="m273.42 286.61l-0.79-2.41h-4.25l-0.85 2.41h-1.75l4.65-11.6h0.42l4.31 11.6h-1.74zm-2.86-8.6l-1.77 5.04h3.4l-1.63-5.04z" />
      <path
         id="text5189"
         style="fill:#e6e6e6;fill-opacity:1"
         d="m321.91 286.01l0.57-1.44c0.29 0.22 0.65 0.4 1.09 0.54 0.43 0.14 0.82 0.21 1.16 0.21 0.61 0 1.1-0.16 1.47-0.5 0.37-0.33 0.56-0.75 0.56-1.27 0-0.38-0.11-0.74-0.31-1.07-0.21-0.33-0.72-0.7-1.55-1.09l-0.92-0.43c-0.79-0.36-1.33-0.79-1.64-1.29s-0.47-1.1-0.47-1.81c0-0.85 0.31-1.56 0.91-2.12s1.38-0.85 2.33-0.85c1.26 0 2.14 0.21 2.64 0.62l-0.46 1.36c-0.21-0.15-0.53-0.3-0.96-0.44-0.42-0.14-0.82-0.21-1.18-0.21-0.53 0-0.95 0.15-1.26 0.46-0.3 0.3-0.45 0.69-0.45 1.16 0 0.29 0.05 0.56 0.16 0.8s0.26 0.44 0.46 0.6c0.19 0.16 0.59 0.39 1.2 0.68l0.93 0.44c0.79 0.37 1.33 0.81 1.65 1.33 0.31 0.51 0.47 1.16 0.47 1.95 0 0.86-0.34 1.59-1.03 2.19s-1.62 0.9-2.77 0.9c-1.02 0-1.89-0.24-2.6-0.72z" />
      <path
         id="text5193"
         style="fill:#e6e6e6;fill-opacity:1"
         d="m379.33 286.57h-2.3v-11.44c1.47-0.05 2.41-0.08 2.82-0.08 1.6 0 2.86 0.49 3.8 1.46 0.93 0.97 1.4 2.26 1.4 3.88 0 4.12-1.91 6.18-5.72 6.18zm-0.74-10.04v8.56c0.35 0.05 0.78 0.08 1.3 0.08 1.09 0 1.95-0.41 2.58-1.23 0.62-0.82 0.93-1.96 0.93-3.42 0-2.71-1.21-4.06-3.64-4.06-0.15 0-0.54 0.02-1.17 0.07z" />
      <path
         id="text5197"
         style="fill:#e6e6e6;fill-opacity:1"
         d="m435.12 276.5v3.18h4.02v1.32h-4.02v5.53h-1.56v-11.44h7.07v1.41h-5.51z" />
      <path
         id="text5201"
         style="fill:#e6e6e6;fill-opacity:1"
         d="m496.06 275.89l-0.65 1.29c-0.79-0.59-1.56-0.88-2.31-0.88-1.2 0-2.15 0.42-2.84 1.27-0.69 0.84-1.04 1.96-1.04 3.35 0 1.32 0.34 2.39 1.02 3.19 0.68 0.81 1.61 1.21 2.78 1.21 0.83 0 1.5-0.25 2.02-0.75v-2.68h-1.59v-1.32h3.15v4.98c-0.41 0.35-0.99 0.64-1.74 0.86-0.74 0.21-1.47 0.32-2.17 0.32-1.58 0-2.83-0.53-3.74-1.61-0.91-1.07-1.37-2.49-1.37-4.26 0-1.78 0.5-3.21 1.5-4.31 1.01-1.1 2.36-1.66 4.06-1.66 1.19 0 2.17 0.34 2.92 1z" />
      <path
         id="text5205"
         style="fill:#e6e6e6;fill-opacity:1"
         d="m556.29 286.53v-5.53h-5v5.53h-1.56v-11.44h1.56v4.59h5v-4.59h1.56v11.44h-1.56z" />
      <path
         id="text5209"
         style="fill:#e6e6e6;fill-opacity:1"
         d="m602.56 284.17h1.36c0.13 0.69 0.54 1.04 1.24 1.04s1.19-0.15 1.48-0.45c0.28-0.3 0.42-1.14 0.42-2.51v-7.24h1.57v7.17c0 1.57-0.26 2.69-0.76 3.39-0.51 0.7-1.41 1.04-2.7 1.04-0.74 0-1.35-0.22-1.83-0.66s-0.74-1.04-0.78-1.78z" />
      <path
         id="text5213"
         style="fill:#e6e6e6;fill-opacity:1"
         d="m668.02 286.53l-3.22-5.26-1.53 2.16v3.1h-1.56v-11.44h1.56v6.23l4.25-6.23h1.74l-3.42 4.96 3.91 6.48h-1.73z" />
      <path
         id="text5217"
         style="fill:#e6e6e6;fill-opacity:1"
         d="m718.54 286.53v-11.44h1.57v10.04h5.17v1.4h-6.74z" />
      <path
         id="text5221"
         style="fill:#e6e6e6;fill-opacity:1"
         d="m776.66 273.21c0.33 0 0.6 0.11 0.83 0.34s0.35 0.51 0.35 0.83-0.12 0.6-0.35 0.83-0.5 0.35-0.83 0.35c-0.32 0-0.59-0.12-0.82-0.35s-0.35-0.51-0.35-0.83 0.12-0.6 0.35-0.83 0.5-0.34 0.82-0.34zm0 6.32c0.33 0 0.6 0.12 0.83 0.35s0.35 0.5 0.35 0.83c0 0.32-0.12 0.6-0.35 0.83s-0.5 0.35-0.83 0.35c-0.32 0-0.59-0.12-0.82-0.35s-0.35-0.51-0.35-0.83c0-0.33 0.12-0.6 0.35-0.83s0.5-0.35 0.82-0.35zm0 13.68c0.33 0 0.6 0.11 0.83 0.34s0.35 0.51 0.35 0.83-0.12 0.6-0.35 0.83-0.5 0.35-0.83 0.35c-0.32 0-0.59-0.12-0.82-0.35s-0.35-0.51-0.35-0.83 0.12-0.6 0.35-0.83 0.5-0.34 0.82-0.34zm-1.01 11.36l-0.4-0.57c0.9-0.73 1.34-1.36 1.34-1.87 0-0.23-0.07-0.46-0.23-0.69-0.45-0.21-0.67-0.52-0.67-0.92 0-0.28 0.1-0.5 0.32-0.68 0.21-0.18 0.48-0.27 0.8-0.27 0.29 0 0.55 0.12 0.77 0.37 0.23 0.25 0.34 0.54 0.34 0.88 0 0.69-0.14 1.31-0.43 1.87-0.29 0.55-0.9 1.18-1.84 1.88z" />
      <path
         id="text5227"
         style="fill:#e6e6e6;fill-opacity:1"
         d="m834.26 276.11h-1.04l-0.19-2.98h1.44l-0.21 2.98zm2.57 0h-1.03l-0.19-2.98h1.44l-0.22 2.98zm-2.57 20h-1.04l-0.19-2.98h1.44l-0.21 2.98z" />
      <path
         id="text5233"
         style="fill:#e6e6e6;fill-opacity:1"
         d="m894.8 274.42v3.18h3.78v1.33h-3.78v4.12h5.19v1.41h-6.75v-11.45h6.83v1.41h-5.27zm12.03 10.04v-4.87c0-0.89-0.13-1.51-0.4-1.87s-0.72-0.54-1.35-0.54c-0.34 0-0.69 0.1-1.06 0.31-0.37 0.2-0.65 0.45-0.85 0.75v6.22h-1.49v-8.37h1.02l0.47 1.08c0.49-0.83 1.29-1.24 2.4-1.24 1.83 0 2.75 1.12 2.75 3.35v5.18h-1.49zm4.13-7.2h-0.96v-1.17h0.96v-1.75l1.49-0.57v2.32h2.3v1.17h-2.3v4.16c0 0.7 0.12 1.2 0.35 1.5 0.24 0.29 0.62 0.44 1.15 0.44 0.38 0 0.77-0.09 1.18-0.29l0.22 1.31c-0.62 0.15-1.29 0.23-2.03 0.23-0.66 0-1.22-0.24-1.67-0.74-0.46-0.49-0.69-1.11-0.69-1.86v-4.75zm12.86 3.16h-6.03c0 0.98 0.27 1.73 0.81 2.26 0.47 0.45 1.08 0.68 1.83 0.68 0.84 0 1.55-0.24 2.12-0.74l0.63 1.07c-0.23 0.23-0.59 0.43-1.06 0.59-0.59 0.22-1.25 0.33-1.98 0.33-1.06 0-1.95-0.35-2.68-1.07-0.82-0.78-1.23-1.84-1.23-3.17 0-1.38 0.42-2.49 1.26-3.32 0.75-0.74 1.64-1.12 2.66-1.12 1.19 0 2.13 0.34 2.81 1.01 0.65 0.65 0.98 1.5 0.98 2.57 0 0.33-0.04 0.63-0.12 0.91zm-3.6-3.24c-0.66 0-1.21 0.22-1.66 0.64-0.43 0.41-0.67 0.92-0.73 1.52h4.63c0-0.6-0.18-1.1-0.56-1.5-0.41-0.44-0.97-0.66-1.68-0.66zm9.82 0.34c-0.32-0.22-0.65-0.34-0.97-0.34-0.53 0-0.99 0.25-1.38 0.73-0.4 0.48-0.59 1.07-0.59 1.75v4.8h-1.49v-8.37h1.49v1.34c0.54-1 1.34-1.5 2.41-1.5 0.27 0 0.65 0.05 1.15 0.14l-0.62 1.45z" />
      <path
         id="text5237"
         style="fill:#e6e6e6;fill-opacity:1"
         d="m171.47 342.86l0.57-1.44c0.3 0.22 0.66 0.39 1.09 0.54 0.44 0.14 0.83 0.21 1.17 0.21 0.61 0 1.1-0.16 1.47-0.5 0.37-0.33 0.56-0.76 0.56-1.27 0-0.39-0.11-0.74-0.31-1.08-0.21-0.33-0.73-0.69-1.55-1.08l-0.93-0.43c-0.78-0.36-1.32-0.79-1.63-1.29s-0.47-1.11-0.47-1.81c0-0.85 0.3-1.56 0.91-2.12 0.6-0.57 1.38-0.85 2.33-0.85 1.26 0 2.14 0.21 2.64 0.62l-0.46 1.36c-0.21-0.15-0.53-0.3-0.96-0.44-0.42-0.14-0.82-0.21-1.18-0.21-0.54 0-0.95 0.15-1.26 0.45-0.3 0.31-0.46 0.69-0.46 1.17 0 0.29 0.06 0.56 0.17 0.8 0.11 0.23 0.26 0.44 0.46 0.6 0.19 0.16 0.59 0.38 1.2 0.68l0.93 0.44c0.78 0.37 1.33 0.81 1.65 1.33 0.31 0.51 0.47 1.16 0.47 1.95 0 0.86-0.35 1.59-1.04 2.19s-1.61 0.9-2.76 0.9c-1.02 0-1.89-0.24-2.61-0.72zm13.25 0.52v-5.25c0-0.63-0.16-1.12-0.47-1.48-0.3-0.36-0.73-0.54-1.29-0.54-0.36 0-0.72 0.11-1.08 0.32-0.37 0.21-0.64 0.45-0.84 0.73v6.22h-1.48v-11.79h1.48v4.35c0.2-0.31 0.52-0.57 0.96-0.77 0.44-0.21 0.9-0.31 1.36-0.31 0.89 0 1.58 0.29 2.09 0.88 0.5 0.58 0.75 1.38 0.75 2.39v5.25h-1.48zm5.12-11.53c0.26 0 0.47 0.09 0.65 0.27s0.27 0.4 0.27 0.65-0.09 0.47-0.27 0.65-0.39 0.27-0.65 0.27c-0.25 0-0.46-0.09-0.64-0.27s-0.27-0.4-0.27-0.65c0-0.26 0.09-0.47 0.26-0.65 0.18-0.18 0.4-0.27 0.65-0.27zm-0.81 11.53v-7.11h-1.15v-1.25h2.63v8.36h-1.48zm8.37-10.47c-0.31-0.1-0.59-0.15-0.85-0.15-0.45 0-0.83 0.17-1.12 0.51-0.29 0.35-0.44 0.78-0.44 1.31 0 0.14 0.01 0.29 0.04 0.44h1.7v1.25h-1.7v7.11h-1.49v-7.11h-1.21v-1.25h1.21c0-1.07 0.27-1.91 0.79-2.52 0.53-0.61 1.22-0.91 2.09-0.91 0.43 0 0.89 0.07 1.39 0.23l-0.41 1.09zm1.91 3.28h-0.97v-1.17h0.97v-1.75l1.48-0.57v2.32h2.3v1.17h-2.3v4.15c0 0.71 0.12 1.21 0.36 1.5 0.24 0.3 0.62 0.45 1.14 0.45 0.38 0 0.78-0.1 1.18-0.29l0.22 1.31c-0.61 0.15-1.29 0.23-2.02 0.23-0.66 0-1.22-0.25-1.68-0.74-0.45-0.49-0.68-1.11-0.68-1.86v-4.75z" />
      <path
         id="text5241"
         style="fill:#e6e6e6;fill-opacity:1"
         d="m292.84 343.23v-0.39l4.92-9.65h-4.84v-1.41h6.99v0.39l-4.94 9.65h5.11v1.41h-7.24z" />
      <path
         id="text5245"
         style="fill:#e6e6e6;fill-opacity:1"
         d="m354.7 343.23l-2.84-4.59-2.63 4.59h-1.58l3.38-5.94-3.1-5.51 1.54 0.01 2.44 4.32 2.7-4.32h1.57l-3.56 5.53 3.74 5.91h-1.66z" />
      <path
         id="text5249"
         style="fill:#e6e6e6;fill-opacity:1"
         d="m409.65 332.2l-0.52 1.34c-0.5-0.36-1.29-0.55-2.36-0.55-1.01 0-1.81 0.44-2.42 1.3s-0.91 1.98-0.91 3.34c0 1.31 0.31 2.36 0.93 3.17s1.43 1.22 2.41 1.22c1.07 0 1.9-0.38 2.48-1.14l0.86 1.19c-0.91 0.9-2.07 1.35-3.5 1.35-1.5 0-2.67-0.54-3.53-1.61-0.86-1.08-1.29-2.5-1.29-4.27 0-1.71 0.46-3.13 1.37-4.26 0.92-1.13 2.1-1.69 3.56-1.69 1.24 0 2.22 0.2 2.92 0.61z" />
      <path
         id="text5253"
         style="fill:#e6e6e6;fill-opacity:1"
         d="m461.87 343.31h-0.79l-4.27-11.61h1.74l2.94 8.43 2.84-8.43h1.68l-4.14 11.61z" />
      <path
         id="text5257"
         style="fill:#e6e6e6;fill-opacity:1"
         d="m517.76 343.28h-3.27v-11.45c1.39-0.06 2.39-0.1 3.01-0.1 1.13 0 2 0.24 2.62 0.73s0.93 1.19 0.93 2.09c0 0.53-0.19 1.02-0.59 1.45-0.4 0.44-0.83 0.72-1.31 0.82 0.9 0.22 1.56 0.59 1.98 1.09 0.41 0.51 0.62 1.19 0.62 2.06 0 1.01-0.37 1.81-1.11 2.41-0.73 0.6-1.7 0.9-2.88 0.9zm-1.71-10.2v3.29c0.33 0.03 0.74 0.05 1.22 0.05 1.48 0 2.22-0.6 2.22-1.81 0-1.05-0.68-1.58-2.04-1.58-0.52 0-0.98 0.02-1.4 0.05zm0 4.5v4.37c0.54 0.05 0.95 0.08 1.24 0.08 0.98 0 1.69-0.19 2.14-0.55 0.45-0.37 0.68-0.95 0.68-1.76 0-0.74-0.22-1.29-0.65-1.65-0.43-0.35-1.14-0.53-2.15-0.53l-1.26 0.04z" />
      <path
         id="text5261"
         style="fill:#e6e6e6;fill-opacity:1"
         d="m578.42 343.31l-5.92-8.37v8.21h-1.48v-11.45h0.62l5.76 7.92v-7.92h1.49v11.61h-0.47z" />
      <path
         id="text5265"
         style="fill:#e6e6e6;fill-opacity:1"
         d="m637.32 343.15l-1.36-7.35-2.5 7.51h-0.39l-2.57-7.51-1.33 7.35h-1.49l2.14-11.45h0.72l2.72 8.36 2.52-8.36h0.7l2.32 11.45h-1.48z" />
      <path
         id="text5269"
         style="fill:#e6e6e6;fill-opacity:1"
         d="m695.89 335.55l-5.77-2.79v-0.97l5.77-2.76v1.26l-4.46 1.99 4.46 2.01v1.26zm-5.2 24.54l-0.39-0.56c0.89-0.74 1.34-1.36 1.34-1.88 0-0.23-0.08-0.45-0.23-0.68-0.45-0.22-0.68-0.52-0.68-0.93 0-0.27 0.11-0.5 0.32-0.68 0.22-0.18 0.49-0.27 0.81-0.27 0.28 0 0.54 0.13 0.77 0.38 0.22 0.25 0.34 0.54 0.34 0.87 0 0.69-0.15 1.32-0.44 1.87-0.28 0.56-0.9 1.18-1.84 1.88z" />
      <path
         id="text5275"
         style="fill:#e6e6e6;fill-opacity:1"
         d="m751.49 333.11l-5.77 2.8v-1.26l4.46-2.02-4.46-1.99v-1.26l5.77 2.77v0.96zm-4.18 22.3c0.32 0 0.6 0.12 0.83 0.35s0.34 0.5 0.34 0.83c0 0.32-0.11 0.6-0.34 0.83s-0.51 0.35-0.83 0.35-0.6-0.12-0.83-0.35-0.34-0.51-0.34-0.83c0-0.33 0.11-0.6 0.34-0.83s0.51-0.35 0.83-0.35z" />
      <path
         id="text5281"
         style="fill:#e6e6e6;fill-opacity:1"
         d="m802.96 335.98h-1.03c-0.18-0.5-0.27-0.85-0.27-1.07 0-0.38 0.07-0.76 0.21-1.15s0.45-0.86 0.94-1.4c0.49-0.55 0.81-0.97 0.98-1.26s0.25-0.57 0.25-0.85c0-0.92-0.56-1.37-1.66-1.37-0.54 0-1 0.19-1.4 0.57l-0.57-1.12c0.53-0.43 1.31-0.65 2.36-0.65 0.78 0 1.43 0.22 1.94 0.66 0.52 0.45 0.78 1.04 0.78 1.78 0 0.37-0.06 0.73-0.2 1.08-0.13 0.35-0.33 0.67-0.61 0.96l-1.14 1.22c-0.46 0.56-0.69 1.19-0.69 1.89 0 0.11 0.04 0.34 0.11 0.71zm-0.33 1.15c0.33 0 0.6 0.12 0.83 0.35s0.34 0.5 0.34 0.83c0 0.32-0.11 0.6-0.34 0.83s-0.5 0.35-0.83 0.35c-0.32 0-0.6-0.12-0.83-0.35-0.22-0.23-0.34-0.51-0.34-0.83 0-0.33 0.12-0.6 0.34-0.83 0.23-0.23 0.51-0.35 0.83-0.35zm0.21 22.2h-1.26l4.15-11.49h1.24l-4.13 11.49z" />
      <path
         id="text5287"
         style="fill:#e6e6e6;fill-opacity:1"
         d="m864.44 342.86l0.57-1.44c0.29 0.22 0.65 0.39 1.09 0.54 0.43 0.14 0.82 0.21 1.17 0.21 0.61 0 1.1-0.16 1.47-0.5 0.36-0.33 0.55-0.76 0.55-1.27 0-0.39-0.1-0.74-0.31-1.08-0.2-0.33-0.72-0.69-1.55-1.08l-0.92-0.43c-0.78-0.36-1.33-0.79-1.64-1.29s-0.46-1.11-0.46-1.81c0-0.85 0.3-1.56 0.9-2.12 0.61-0.57 1.38-0.85 2.33-0.85 1.27 0 2.15 0.21 2.64 0.62l-0.46 1.36c-0.21-0.15-0.53-0.3-0.95-0.44-0.43-0.14-0.83-0.21-1.19-0.21-0.53 0-0.95 0.15-1.25 0.45-0.31 0.31-0.46 0.69-0.46 1.17 0 0.29 0.05 0.56 0.16 0.8 0.11 0.23 0.27 0.44 0.46 0.6 0.2 0.16 0.6 0.38 1.2 0.68l0.94 0.44c0.78 0.37 1.33 0.81 1.64 1.33 0.32 0.51 0.47 1.16 0.47 1.95 0 0.86-0.34 1.59-1.03 2.19s-1.61 0.9-2.77 0.9c-1.02 0-1.88-0.24-2.6-0.72zm13.24 0.52v-5.25c0-0.63-0.15-1.12-0.46-1.48s-0.74-0.54-1.3-0.54c-0.36 0-0.72 0.11-1.08 0.32s-0.64 0.45-0.83 0.73v6.22h-1.49v-11.79h1.49v4.35c0.2-0.31 0.52-0.57 0.96-0.77 0.44-0.21 0.89-0.31 1.36-0.31 0.88 0 1.58 0.29 2.08 0.88 0.5 0.58 0.75 1.38 0.75 2.39v5.25h-1.48zm5.13-11.53c0.25 0 0.47 0.09 0.65 0.27s0.27 0.4 0.27 0.65-0.09 0.47-0.27 0.65-0.4 0.27-0.65 0.27-0.47-0.09-0.65-0.27-0.27-0.4-0.27-0.65c0-0.26 0.09-0.47 0.27-0.65 0.17-0.18 0.39-0.27 0.65-0.27zm-0.82 11.53v-7.11h-1.15v-1.25h2.64v8.36h-1.49zm8.37-10.47c-0.3-0.1-0.58-0.15-0.84-0.15-0.46 0-0.83 0.17-1.12 0.51-0.3 0.35-0.45 0.78-0.45 1.31 0 0.14 0.02 0.29 0.04 0.44h1.71v1.25h-1.71v7.11h-1.48v-7.11h-1.22v-1.25h1.22c0-1.07 0.26-1.91 0.79-2.52 0.52-0.61 1.22-0.91 2.08-0.91 0.44 0 0.9 0.07 1.39 0.23l-0.41 1.09zm1.91 3.28h-0.96v-1.17h0.96v-1.75l1.49-0.57v2.32h2.3v1.17h-2.3v4.15c0 0.71 0.12 1.21 0.35 1.5 0.24 0.3 0.62 0.45 1.15 0.45 0.38 0 0.77-0.1 1.18-0.29l0.22 1.31c-0.62 0.15-1.29 0.23-2.03 0.23-0.66 0-1.22-0.25-1.67-0.74-0.46-0.49-0.69-1.11-0.69-1.86v-4.75z" />
      <path
         id="text5291"
         style="fill:#e6e6e6;fill-opacity:1"
         d="m881.25 391.79l-0.53 1.34c-0.5-0.37-1.28-0.55-2.35-0.55-1.01 0-1.82 0.43-2.42 1.3-0.61 0.86-0.91 1.98-0.91 3.34 0 1.3 0.31 2.36 0.93 3.17s1.43 1.21 2.41 1.21c1.07 0 1.9-0.38 2.48-1.14l0.86 1.2c-0.91 0.9-2.08 1.35-3.5 1.35-1.5 0-2.67-0.54-3.53-1.62s-1.29-2.5-1.29-4.26c0-1.71 0.46-3.13 1.37-4.26 0.92-1.13 2.1-1.7 3.56-1.7 1.24 0 2.22 0.21 2.92 0.62zm2.67 3.83h-0.97v-1.17h0.97v-1.75l1.48-0.57v2.32h2.3v1.17h-2.3v4.16c0 0.7 0.12 1.2 0.36 1.5 0.24 0.29 0.62 0.44 1.14 0.44 0.38 0 0.78-0.1 1.18-0.29l0.22 1.31c-0.61 0.15-1.29 0.23-2.02 0.23-0.66 0-1.22-0.25-1.68-0.74-0.45-0.49-0.68-1.11-0.68-1.86v-4.75zm10.36 0.26c-0.32-0.23-0.65-0.34-0.98-0.34-0.52 0-0.98 0.24-1.38 0.73-0.39 0.48-0.59 1.07-0.59 1.75v4.79h-1.48v-8.36h1.48v1.33c0.55-0.99 1.35-1.49 2.42-1.49 0.26 0 0.65 0.05 1.15 0.14l-0.62 1.45zm1.79 4.57v-9.43h1.48v9.18c0 0.45 0.13 0.8 0.39 1.06 0.26 0.25 0.59 0.38 1.01 0.38v1.33c-1.92 0-2.88-0.84-2.88-2.52z" />
      <path
         id="text5295"
         style="fill:#e6e6e6;fill-opacity:1"
         d="m324.82 402.83l-0.79-2.41h-4.26l-0.84 2.41h-1.75l4.65-11.6h0.41l4.31 11.6h-1.73zm-2.86-8.6l-1.77 5.04h3.39l-1.62-5.04zm5.8 6.24v-9.43h1.48v9.18c0 0.44 0.13 0.8 0.39 1.06 0.26 0.25 0.59 0.38 1.01 0.38v1.33c-1.92 0-2.88-0.84-2.88-2.52zm5.13-4.83h-0.97v-1.17h0.97v-1.75l1.48-0.57v2.32h2.3v1.17h-2.3v4.16c0 0.7 0.12 1.2 0.36 1.5 0.24 0.29 0.62 0.44 1.14 0.44 0.38 0 0.78-0.1 1.18-0.29l0.22 1.31c-0.61 0.15-1.29 0.23-2.02 0.23-0.66 0-1.22-0.25-1.68-0.74-0.45-0.49-0.68-1.11-0.68-1.86v-4.75z" />
      <path
         id="text5299"
         style="fill:#e6e6e6;fill-opacity:1"
         d="m740.01 402.83l-0.79-2.41h-4.25l-0.85 2.41h-1.75l4.65-11.6h0.41l4.32 11.6h-1.74zm-2.86-8.6l-1.77 5.04h3.4l-1.63-5.04zm5.8 6.24v-9.43h1.48v9.18c0 0.44 0.13 0.8 0.39 1.06 0.26 0.25 0.6 0.38 1.01 0.38v1.33c-1.92 0-2.88-0.84-2.88-2.52zm5.13-4.83h-0.97v-1.17h0.97v-1.75l1.49-0.57v2.32h2.29v1.17h-2.29v4.16c0 0.7 0.12 1.2 0.35 1.5 0.24 0.29 0.62 0.44 1.15 0.44 0.38 0 0.77-0.1 1.18-0.29l0.22 1.31c-0.62 0.15-1.29 0.23-2.03 0.23-0.66 0-1.22-0.25-1.67-0.74-0.46-0.49-0.69-1.11-0.69-1.86v-4.75z" />
      <path
         id="text5303"
         style="fill:#e6e6e6;fill-opacity:1"
         d="m178.18 391.79l-0.52 1.34c-0.5-0.37-1.29-0.55-2.36-0.55-1.01 0-1.81 0.43-2.42 1.3-0.61 0.86-0.91 1.98-0.91 3.34 0 1.3 0.31 2.36 0.93 3.17 0.63 0.81 1.43 1.21 2.42 1.21 1.07 0 1.89-0.38 2.47-1.14l0.86 1.2c-0.91 0.9-2.07 1.35-3.5 1.35-1.49 0-2.67-0.54-3.53-1.62s-1.29-2.5-1.29-4.26c0-1.71 0.46-3.13 1.38-4.26 0.91-1.13 2.1-1.7 3.55-1.7 1.25 0 2.22 0.21 2.92 0.62zm2.67 3.83h-0.96v-1.17h0.96v-1.75l1.49-0.57v2.32h2.3v1.17h-2.3v4.16c0 0.7 0.12 1.2 0.35 1.5 0.24 0.29 0.62 0.44 1.15 0.44 0.38 0 0.77-0.1 1.18-0.29l0.22 1.31c-0.62 0.15-1.29 0.23-2.03 0.23-0.66 0-1.22-0.25-1.67-0.74-0.46-0.49-0.69-1.11-0.69-1.86v-4.75zm10.36 0.26c-0.32-0.23-0.65-0.34-0.97-0.34-0.53 0-0.99 0.24-1.38 0.73-0.4 0.48-0.59 1.07-0.59 1.75v4.79h-1.49v-8.36h1.49v1.33c0.54-0.99 1.34-1.49 2.41-1.49 0.27 0 0.65 0.05 1.15 0.14l-0.62 1.45zm1.79 4.57v-9.43h1.49v9.18c0 0.45 0.13 0.8 0.38 1.06 0.26 0.25 0.6 0.38 1.02 0.38v1.33c-1.93 0-2.89-0.84-2.89-2.52z" />
      <g
         id="g5669"
         transform="matrix(.91793 0 0 .91793 66.506 32.514)">
        <g
           id="g4332"
           style="stroke:#ffffff;stroke-opacity:1">
          <rect
             x="802.18"
             y="388.71"
             width="12.783"
             height="14.926"
             style="stroke:#ffffff;stroke-width:1.0743;fill:none;stroke-opacity:1"
             id="rect5661" />
          <rect
             x="802.09"
             y="391.11"
             width="12.967"
             height="10.109"
             style="stroke:#ffffff;stroke-width:0.8905;fill:none;stroke-opacity:1"
             id="rect5665" />
          <rect
             x="801.92"
             y="394.17"
             width="13.29"
             height="4.0041"
             style="stroke:#ffffff;stroke-width:0.56737;fill:none;stroke-opacity:1"
             id="rect5667" />
        </g>
        <path
           id="path5663"
           style="stroke:#000000;stroke-width:0.68138;fill:#ffffff;stroke-opacity:1;fill-opacity:1"
           d="m811.75 392.73l0.01 3.68v3.69l1.97-1.14 2.75 4.76 2.23-1.29-2.75-4.76 2.18-1.25-3.19-1.85-3.2-1.84z" />
      </g>
    </g>
  </g>
  <metadata
     id="metadata204">
    <rdf:RDF>
      <cc:Work>
        <dc:format>image/svg+xml</dc:format>
        <dc:type
           rdf:resource="http://purl.org/dc/dcmitype/StillImage" />
        <cc:license
           rdf:resource="http://creativecommons.org/licenses/publicdomain/" />
        <dc:publisher>
          <cc:Agent
             rdf:about="http://openclipart.org/">
            <dc:title>Openclipart</dc:title>
          </cc:Agent>
        </dc:publisher>
        <dc:title></dc:title>
        <dc:date>2010-03-15T21:26:43</dc:date>
        <dc:description>a qwerty keyboard, (the text is converted to path)</dc:description>
        <dc:source>https://openclipart.org/detail/31855/qwerty-keyboard-(path)-by-rockraikar</dc:source>
        <dc:creator>
          <cc:Agent>
            <dc:title>rockraikar</dc:title>
          </cc:Agent>
        </dc:creator>
        <dc:subject>
          <rdf:Bag>
            <rdf:li>keyboard</rdf:li>
            <rdf:li>qwerty</rdf:li>
          </rdf:Bag>
        </dc:subject>
      </cc:Work>
      <cc:License
         rdf:about="http://creativecommons.org/licenses/publicdomain/">
        <cc:permits
           rdf:resource="http://creativecommons.org/ns#Reproduction" />
        <cc:permits
           rdf:resource="http://creativecommons.org/ns#Distribution" />
        <cc:permits
           rdf:resource="http://creativecommons.org/ns#DerivativeWorks" />
      </cc:License>
    </rdf:RDF>
  </metadata>
</svg>
